<?xml version="1.0" encoding="utf-8"?>
<!-- Generator: Adobe Illustrator 26.1.0, SVG Export Plug-In . SVG Version: 6.00 Build 0)  -->
<svg version="1.1" id="_0" xmlns="http://www.w3.org/2000/svg" xmlns:xlink="http://www.w3.org/1999/xlink" x="0px" y="0px"
	 viewBox="0 0 567.6 200.2" style="enable-background:new 0 0 567.6 200.2;" xml:space="preserve">
<style type="text/css">
	.st0{fill:none;stroke:#000000;stroke-width:0.71;stroke-linecap:round;stroke-linejoin:round;}
</style>
<g id="LWPOLYLINE">
	<path class="st0" d="M0.3,200.2h566.9V34.6c0-18.3-15.9-33.1-35.4-33.1h-496C16.2,1.4,0.4,16.3,0.4,34.6l0,0L0.3,200.2L0.3,200.2z"
		/>
</g>
<g id="LINE">
	<line class="st0" x1="0.3" y1="142.1" x2="567.3" y2="142.1"/>
</g>
<g>
	<g>
		<path d="M287.6,101.8c-0.5,0-1.6-0.1-3.4-0.2c-1.8-0.1-3.8-0.2-6-0.3c-2.3-0.1-4.4-0.1-6.5-0.1c-1,0-1.9,0-2.6,0.1
			s-1.4,0.1-2.2,0.2c-0.8,0.1-1.9,0.1-3.2,0.1c-0.7,0-1.2-0.1-1.6-0.2c-0.4-0.2-0.6-0.4-0.6-0.8c0-0.4,0.2-0.7,0.6-0.8
			c0.4-0.1,1-0.3,1.9-0.4c1.9-0.4,3.3-0.9,4-1.8c0.7-0.8,1.1-2.1,1.1-4V59.3c0-1.8-0.4-3.1-1.1-3.9c-0.7-0.8-2.1-1.3-4-1.7
			c-0.9-0.2-1.5-0.3-1.9-0.5c-0.4-0.2-0.6-0.5-0.6-0.9c0-0.4,0.2-0.6,0.6-0.8c0.4-0.2,0.9-0.2,1.6-0.2c1.3,0,2.4,0,3.2,0
			c0.8,0,1.6,0.1,2.3,0.1c0.8,0,1.8,0,3,0c0.8,0,1.8,0,3.1-0.1c1.2-0.1,2.5-0.1,3.9-0.2c1.3-0.1,2.6-0.2,3.7-0.2
			c1.1,0,1.9-0.1,2.4-0.1c5.2,0,9.6,0.6,13.3,1.9c3.7,1.2,6.7,3,8.9,5.2c2.3,2.2,4,4.8,5.1,7.7c1.1,2.9,1.6,6.1,1.6,9.4
			c0,3.7-0.7,7.1-2.1,10.3c-1.4,3.2-3.3,6.1-5.7,8.5c-2.4,2.5-5.3,4.4-8.5,5.8C294.7,101.1,291.2,101.8,287.6,101.8z M286.7,99.1
			c4,0,7.5-1,10.5-2.9c3.1-1.9,5.4-4.6,7.1-8c1.7-3.4,2.6-7.3,2.6-11.8c0-3.7-0.6-6.9-1.8-9.8c-1.2-2.9-2.9-5.3-4.9-7.3
			c-2-2-4.3-3.5-6.9-4.5c-2.5-1-5.1-1.6-7.7-1.6c-2.2,0-4.1,0.1-5.6,0.2c-1.6,0.1-2.7,0.5-3.6,1.2c-0.8,0.7-1.2,1.8-1.2,3.3V92
			c0,2,0.6,3.6,1.7,4.6c1.1,1,2.6,1.7,4.3,2C283,99,284.8,99.1,286.7,99.1z"/>
		<path d="M320.6,101.5c-0.5,0-0.9-0.1-1.1-0.2c-0.3-0.1-0.4-0.3-0.4-0.6c0-0.4,0.2-0.7,0.5-0.8c0.3-0.1,0.7-0.3,1.3-0.4
			c1-0.3,1.7-0.6,2.2-1.1c0.5-0.5,0.7-1.1,0.7-1.8V80.1c0-1.4-0.2-2.6-0.6-3.6c-0.4-1-1.2-1.7-2.5-1.9c-0.2-0.1-0.4-0.2-0.5-0.4
			c-0.2-0.2-0.2-0.4-0.2-0.6c0-0.5,0.2-0.8,0.7-0.9c1.3-0.4,2.7-1,4.2-1.8c1.5-0.8,2.6-1.4,3.4-1.9c0.3-0.2,0.5-0.3,0.7-0.4
			c0.2-0.1,0.3-0.1,0.4-0.1c0.3,0,0.4,0.2,0.4,0.5c0,0.2,0,0.5,0,1.1c0,0.6-0.1,1.3-0.1,2.1c0,0.8-0.1,1.6-0.1,2.4
			c0,0.1,0,0.2,0.2,0.2c0.8-1,1.7-1.9,2.7-2.7s2-1.4,3.1-1.8c1-0.5,2.1-0.7,3-0.7c1.1,0,1.9,0.2,2.6,0.7c0.7,0.5,1,1,1,1.8
			c0,0.5-0.1,1.1-0.4,1.7c-0.3,0.6-0.6,1.1-1.1,1.6c-0.5,0.5-0.9,0.7-1.5,0.7c-0.3,0-0.6-0.1-1-0.2c-0.4-0.1-0.7-0.3-1.1-0.5
			c-0.4-0.2-0.8-0.3-1.2-0.5c-0.4-0.2-0.8-0.2-1.2-0.2c-1.2,0-2.4,0.4-3.6,1.3c-1.1,0.9-1.7,2.6-1.7,5.1v15.4c0,0.7,0.4,1.2,1.1,1.6
			c0.7,0.4,1.7,0.9,3,1.3c0.6,0.2,1,0.3,1.3,0.5c0.3,0.2,0.5,0.4,0.5,0.8c0,0.6-0.5,0.8-1.5,0.8c-1.5,0-2.7-0.1-3.5-0.2
			c-0.8-0.1-1.8-0.2-3.2-0.2c-0.9,0-1.6,0-2.1,0.1s-1.1,0.1-1.7,0.2C322.4,101.4,321.6,101.5,320.6,101.5z"/>
		<path d="M351.2,102.3c-1.1,0-2.1-0.4-2.9-1.3s-1.3-1.8-1.3-2.9c0-1.2,0.4-2.2,1.3-3c0.8-0.8,1.8-1.2,2.9-1.2c1.2,0,2.2,0.4,3,1.2
			c0.8,0.8,1.2,1.8,1.2,3c0,1.1-0.4,2.1-1.2,2.9C353.3,101.9,352.3,102.3,351.2,102.3z"/>
		<path d="M379.8,101.6c-0.7,0-1.2-0.1-1.6-0.2c-0.4-0.1-0.6-0.3-0.6-0.7c0-0.6,0.8-1.1,2.5-1.4c1.9-0.4,3.3-1,4-1.8
			c0.7-0.8,1.1-2.2,1.1-4.1V59.1c0-1.8-0.4-3-1.1-3.8c-0.7-0.7-2.1-1.3-4-1.6c-1.7-0.3-2.5-0.8-2.5-1.5c0-0.3,0.2-0.5,0.6-0.6
			c0.4-0.1,0.9-0.2,1.6-0.2c1.4,0,2.5,0,3.3,0c0.8,0,1.6,0.1,2.4,0.1c0.8,0,1.7,0,2.8,0c1,0,1.7,0,2.3,0c0.6,0,1.2-0.1,1.9-0.1
			c0.7,0,1.8,0,3.1,0c0.7,0,1.2,0.1,1.6,0.2c0.4,0.1,0.6,0.3,0.6,0.6c0,0.4-0.2,0.7-0.6,0.9c-0.4,0.3-1,0.5-1.9,0.6
			c-1.9,0.4-3,1-3.5,1.9c-0.4,0.9-0.7,2.1-0.7,3.6v14.3c0,0.2,0,0.5,0,0.9c0,0.4,0.1,0.6,0.3,0.6c0.3,0,0.6-0.2,1-0.5
			c0.4-0.3,0.8-0.6,1-0.9l15.3-15.6c0.4-0.4,0.7-0.8,0.9-1.2s0.3-0.8,0.3-1.1c0-0.9-0.5-1.5-1.5-1.8c-0.9-0.3-1.5-0.5-1.8-0.7
			c-0.4-0.2-0.5-0.5-0.5-0.8c0-0.3,0.2-0.5,0.6-0.6c0.4-0.1,0.9-0.2,1.6-0.2h4.1c1.5,0,3.1,0,4.9-0.1c1.8-0.1,3.4-0.1,4.9-0.2
			c1.5-0.1,2.3-0.1,2.6-0.1c0.5,0,0.9,0.1,1.2,0.2s0.5,0.4,0.5,0.6c0,0.4-0.2,0.7-0.6,0.9c-0.4,0.3-1,0.5-1.9,0.6
			c-1.9,0.4-3.8,0.9-5.9,1.7s-3.9,1.9-5.7,3.4c-1.8,1.5-3.5,3-5.1,4.5c-1.6,1.5-3.1,3-4.6,4.5c-1.5,1.6-3.2,3.3-5,5.3
			c-0.3,0.3-0.2,0.8,0.4,1.4L416.9,94c1.1,1.2,2,2.2,2.7,2.8c0.7,0.7,1.5,1.2,2.3,1.6c0.8,0.4,2,0.7,3.4,1c0.9,0.2,1.5,0.4,1.9,0.6
			c0.4,0.2,0.6,0.4,0.6,0.8c0,0.3-0.2,0.5-0.6,0.7c-0.4,0.1-0.9,0.2-1.6,0.2c-1.5,0-2.8,0-3.8-0.1s-2.1-0.1-3.1-0.2
			c-1-0.1-2.2-0.1-3.7-0.1c-1,0-1.8,0-2.5,0c-0.7,0-1.9,0-3.7,0c-0.7,0-1.2-0.1-1.6-0.2c-0.4-0.1-0.6-0.3-0.6-0.7
			c0-0.6,0.7-1,2.1-1.3c1.4-0.4,2.1-0.9,2.1-1.5c0-0.3-0.1-0.6-0.3-0.9s-0.5-0.6-0.8-1l-16.2-17.9c-0.3-0.3-0.6-0.6-1-0.9
			c-0.3-0.3-0.6-0.4-0.8-0.4c-0.2,0-0.3,0.2-0.3,0.6c0,0.4,0,0.7,0,1c0,2.4,0,4.7,0.1,6.8c0.1,2.2,0.2,4.8,0.3,7.8
			c0,1.1,0.2,2.1,0.5,3c0.3,0.9,0.8,1.7,1.5,2.3c0.7,0.6,1.7,1,2.9,1.3c0.9,0.2,1.5,0.3,1.9,0.5c0.4,0.2,0.6,0.5,0.6,0.8
			c0,0.3-0.2,0.5-0.6,0.7c-0.4,0.1-0.9,0.2-1.6,0.2c-1.4,0-2.4-0.1-3.2-0.2c-0.7-0.1-1.4-0.2-2-0.3c-0.6-0.1-1.4-0.1-2.3-0.1
			c-1.2,0-2.3,0-3.2,0.1c-0.9,0.1-1.9,0.2-2.9,0.3C382.4,101.6,381.2,101.6,379.8,101.6z"/>
		<path d="M445.2,102.3c-2.9,0-5.4-0.7-7.7-2c-2.3-1.3-4.1-3.1-5.5-5.5c-1.4-2.3-2-5-2-7.9c0-2.1,0.4-4.2,1.3-6.3
			c0.8-2,2-3.9,3.6-5.6c1.5-1.7,3.3-3,5.3-4c2-1,4.2-1.5,6.6-1.5c3,0,5.6,0.7,8,2.1c2.4,1.4,4.3,3.3,5.7,5.6
			c1.4,2.3,2.1,4.9,2.1,7.6c0,3-0.6,5.8-1.9,8.4c-1.3,2.6-3.2,4.8-5.8,6.5C452.2,101.5,449,102.3,445.2,102.3z M446.8,100
			c1.7,0,3.3-0.3,4.7-1c1.4-0.7,2.4-1.7,3.2-3.2c0.6-1.2,1-2.6,1.2-4.3c0.2-1.7,0.3-3.3,0.3-4.7c0-2.4-0.4-4.8-1.3-7.1
			c-0.9-2.3-2.1-4.1-3.7-5.6c-1.6-1.5-3.5-2.2-5.7-2.2c-1.4,0-2.6,0.2-3.7,0.6c-1.1,0.4-2.1,1.2-3,2.4c-1,1.3-1.7,2.8-2,4.7
			c-0.3,1.8-0.5,3.7-0.5,5.5c0,2.5,0.5,4.9,1.4,7.1c0.9,2.3,2.2,4.1,3.7,5.5C442.9,99.3,444.7,100,446.8,100z"/>
		<path d="M468.9,101.5c-0.5,0-0.9-0.1-1.1-0.2c-0.3-0.1-0.4-0.3-0.4-0.6c0-0.4,0.2-0.7,0.5-0.8c0.3-0.1,0.7-0.3,1.3-0.4
			c1-0.3,1.7-0.6,2.2-1.1c0.5-0.5,0.7-1.1,0.7-1.8V80.1c0-1.4-0.2-2.6-0.6-3.6c-0.4-1-1.2-1.7-2.5-1.9c-0.2-0.1-0.4-0.2-0.5-0.4
			c-0.2-0.2-0.2-0.4-0.2-0.6c0-0.5,0.2-0.8,0.7-0.9c1.3-0.4,2.7-1,4.2-1.8c1.5-0.8,2.6-1.4,3.4-1.9c0.3-0.2,0.5-0.3,0.7-0.4
			c0.2-0.1,0.3-0.1,0.4-0.1c0.3,0,0.4,0.2,0.4,0.5c0,0.2,0,0.5,0,1.1c0,0.6-0.1,1.3-0.1,2.1c0,0.8-0.1,1.6-0.1,2.4
			c0,0.1,0,0.2,0.2,0.2c0.8-1,1.7-1.9,2.7-2.7s2-1.4,3.1-1.8c1-0.5,2.1-0.7,3-0.7c1.1,0,1.9,0.2,2.6,0.7c0.7,0.5,1,1,1,1.8
			c0,0.5-0.1,1.1-0.4,1.7c-0.3,0.6-0.6,1.1-1.1,1.6c-0.5,0.5-0.9,0.7-1.5,0.7c-0.3,0-0.6-0.1-1-0.2c-0.4-0.1-0.7-0.3-1.1-0.5
			c-0.4-0.2-0.8-0.3-1.2-0.5c-0.4-0.2-0.8-0.2-1.2-0.2c-1.2,0-2.4,0.4-3.6,1.3c-1.1,0.9-1.7,2.6-1.7,5.1v15.4c0,0.7,0.4,1.2,1.1,1.6
			c0.7,0.4,1.7,0.9,3,1.3c0.6,0.2,1,0.3,1.3,0.5c0.3,0.2,0.5,0.4,0.5,0.8c0,0.6-0.5,0.8-1.5,0.8c-1.5,0-2.7-0.1-3.5-0.2
			c-0.8-0.1-1.8-0.2-3.2-0.2c-0.9,0-1.6,0-2.1,0.1s-1.1,0.1-1.7,0.2C470.7,101.4,469.9,101.5,468.9,101.5z"/>
		<path d="M494,101.5c-0.5,0-0.8-0.1-1.1-0.2c-0.3-0.1-0.4-0.3-0.4-0.6c0-0.4,0.2-0.7,0.5-0.8c0.3-0.1,0.7-0.3,1.3-0.4
			c0.8-0.2,1.5-0.5,2.2-0.8c0.7-0.4,1.1-1,1.1-2.1V80.1c0-1.4-0.1-2.5-0.4-3.5c-0.3-1-1.1-1.6-2.4-2c-0.2-0.1-0.4-0.2-0.5-0.3
			c-0.2-0.1-0.2-0.3-0.2-0.6c0-0.6,0.2-0.9,0.7-0.9c1.8-0.5,3.2-1,4.4-1.7c1.1-0.7,2.2-1.4,3.3-2.2c0.2-0.1,0.3-0.2,0.4-0.3
			c0.1-0.1,0.3-0.1,0.4-0.1c0.1,0,0.2,0.1,0.3,0.2c0.1,0.1,0.1,0.2,0.1,0.4c0,0.4-0.1,1.1-0.2,2.2c-0.1,1.1-0.2,2-0.2,2.7
			c0,0.2,0,0.4,0,0.6c0,0.2,0.1,0.3,0.1,0.3c1.8-1.7,3.7-3,5.7-3.8c2-0.9,4.2-1.3,6.6-1.3c2.5,0,4.6,1,6.2,3.1
			c1.6,2,2.4,4.6,2.4,7.6v16.3c0,1,0.4,1.7,1.1,2c0.7,0.3,1.5,0.6,2.2,0.9c0.4,0.2,0.8,0.3,1.2,0.5c0.4,0.2,0.6,0.5,0.6,0.9
			c0,0.3-0.2,0.5-0.5,0.6c-0.4,0.1-0.7,0.1-1,0.1c-1,0-1.8,0-2.4-0.1c-0.6-0.1-1.1-0.1-1.6-0.2c-0.5-0.1-1.2-0.1-2.1-0.1
			c-0.9,0-1.6,0-2.1,0.1c-0.6,0.1-1.1,0.1-1.7,0.2c-0.6,0.1-1.4,0.1-2.4,0.1c-0.3,0-0.6,0-1-0.1c-0.4-0.1-0.6-0.3-0.6-0.6
			c0-0.4,0.2-0.7,0.6-0.9c0.4-0.2,0.8-0.3,1.2-0.5c0.8-0.3,1.5-0.5,2.2-0.9c0.7-0.3,1.1-1,1.1-2v-16c0-2.2-0.6-4-1.9-5.2
			c-1.2-1.2-2.9-1.9-5-1.9c-1.8,0-3.4,0.3-4.8,0.9c-1.4,0.6-2.6,1.3-3.7,2.2c-0.2,0.2-0.4,0.5-0.5,0.8c-0.1,0.3-0.2,0.6-0.2,1v18.4
			c0,1,0.4,1.7,1.1,2.1c0.7,0.4,1.5,0.6,2.2,0.8c1.2,0.3,1.8,0.7,1.8,1.2c0,0.3-0.1,0.5-0.4,0.6c-0.3,0.1-0.6,0.2-1.1,0.2
			c-1,0-1.8,0-2.4-0.1c-0.6-0.1-1.1-0.1-1.6-0.2c-0.5-0.1-1.2-0.1-2.1-0.1c-0.9,0-1.6,0-2.1,0.1c-0.5,0.1-1.1,0.1-1.7,0.2
			C495.8,101.4,495,101.5,494,101.5z"/>
	</g>
</g>
<image style="overflow:visible;enable-background:new    ;" width="323" height="330" xlink:href="CA37C63B.png"  transform="matrix(0.3528 0 0 0.3528 47.8 14.1703)">
</image>
</svg>
